HIERARCHY
ROOT Hips
{
 OFFSET 0.000000 0.000000 0.000000
 CHANNELS 6 Xposition Yposition Zposition Yrotation Xrotation Zrotation
 JOINT Chest
 {
  OFFSET 0.000000 10.354800 0.006500
  CHANNELS 3 Yrotation Xrotation Zrotation
  JOINT Chest2
  {
   OFFSET 0.000000 10.435800 -0.013200
   CHANNELS 3 Yrotation Xrotation Zrotation
   JOINT Chest3
   {
    OFFSET 0.000000 10.393700 0.000000
    CHANNELS 3 Yrotation Xrotation Zrotation
    JOINT Chest4
    {
     OFFSET 0.000000 10.383100 0.000000
     CHANNELS 3 Yrotation Xrotation Zrotation
     JOINT Neck
     {
      OFFSET 0.000000 15.694000 0.000000
      CHANNELS 3 Yrotation Xrotation Zrotation
      JOINT Head
      {
       OFFSET 0.000000 9.711000 -0.028000
       CHANNELS 3 Yrotation Xrotation Zrotation
       End Site
       {
        OFFSET 0.000000 18.578700 -0.014800
       }
      }
     }
     JOINT RightCollar
     {
      OFFSET -3.157200 10.367500 0.000000
      CHANNELS 3 Yrotation Xrotation Zrotation
      JOINT RightShoulder
      {
       OFFSET -14.482500 0.000000 0.000000
       CHANNELS 3 Yrotation Xrotation Zrotation
       JOINT RightElbow
       {
        OFFSET 0.000000 -31.707800 0.000000
        CHANNELS 3 Yrotation Xrotation Zrotation
        JOINT RightWrist
        {
         OFFSET 0.000000 -25.659300 0.000000
         CHANNELS 3 Yrotation Xrotation Zrotation
         End Site
         {
          OFFSET 0.000000 -18.994300 0.000000
         }
        }
       }
      }
     }
     JOINT LeftCollar
     {
      OFFSET 3.157200 10.367500 0.000000
      CHANNELS 3 Yrotation Xrotation Zrotation
      JOINT LeftShoulder
      {
       OFFSET 14.482500 0.000000 0.000000
       CHANNELS 3 Yrotation Xrotation Zrotation
       JOINT LeftElbow
       {
        OFFSET 0.000000 -31.707800 0.000000
        CHANNELS 3 Yrotation Xrotation Zrotation
        JOINT LeftWrist
        {
         OFFSET 0.000000 -25.659300 0.000000
         CHANNELS 3 Yrotation Xrotation Zrotation
         End Site
         {
          OFFSET 0.000000 -18.994300 0.000000
         }
        }
       }
      }
     }
    }
   }
  }
 }
 JOINT RightHip
 {
  OFFSET -8.365600 -0.032100 -0.003200
  CHANNELS 3 Yrotation Xrotation Zrotation
  JOINT RightKnee
  {
   OFFSET 0.000000 -43.980000 0.003100
   CHANNELS 3 Yrotation Xrotation Zrotation
   JOINT RightAnkle
   {
    OFFSET 0.000000 -42.882800 0.005200
    CHANNELS 3 Yrotation Xrotation Zrotation
    JOINT RightToe
    {
     OFFSET 0.000000 -4.915500 10.826300
     CHANNELS 3 Yrotation Xrotation Zrotation
     End Site
     {
      OFFSET 0.000000 -1.517500 6.175900
     }
    }
   }
  }
 }
 JOINT LeftHip
 {
  OFFSET 8.365600 -0.032100 -0.003200
  CHANNELS 3 Yrotation Xrotation Zrotation
  JOINT LeftKnee
  {
   OFFSET 0.000000 -43.980000 0.003100
   CHANNELS 3 Yrotation Xrotation Zrotation
   JOINT LeftAnkle
   {
    OFFSET 0.000000 -42.882800 0.005200
    CHANNELS 3 Yrotation Xrotation Zrotation
    JOINT LeftToe
    {
     OFFSET 0.000000 -4.915500 10.826300
     CHANNELS 3 Yrotation Xrotation Zrotation
     End Site
     {
      OFFSET 0.000000 -1.517500 6.175900
     }
    }
   }
  }
 }
}
MOTION
Frames: 13
Frame Time: 0.008333
87.132976 126.411918 117.678306 176.307039 -18.794286 -4.130337 -0.833621 10.547020 3.105153 -0.072542 0.679247 0.203105 -0.125141 1.223803 0.379696 -0.787913 9.693661 2.906045 0.552830 19.749664 -2.610481 1.184373 -4.795560 -2.916261 0.086334 7.371765 -5.559456 -16.215030 -22.770020 -14.140310 -137.826107 -58.041108 145.101904 -21.117586 -11.613298 -21.963223 -0.696171 8.875493 1.462663 30.266887 -14.867290 -0.692008 144.273143 -52.898225 -160.372099 23.753192 -2.611230 37.210206 12.477454 -63.295660 -1.137306 -110.203908 81.060781 -103.056068 4.956906 -14.277725 -14.091345 0.005639 0.004478 0.002560 -23.613482 -62.512739 18.296896 69.943362 80.569465 66.248919 -10.541951 -6.026354 -1.657684 -0.080966 -0.010653 -0.036754
87.124386 126.410389 117.675211 176.295544 -18.781407 -4.070143 -0.832492 10.552150 3.059326 -0.073491 0.700090 0.215083 -0.124657 1.203763 0.369201 -0.792942 9.684745 2.903424 0.550368 19.745279 -2.616306 1.175634 -4.795163 -2.918773 0.100757 7.369396 -5.545842 -16.184569 -22.794800 -14.155877 -137.817179 -58.046441 145.096645 -21.114115 -11.599343 -21.948083 -0.709780 8.871450 1.471533 30.241136 -14.892794 -0.617542 144.203170 -52.901199 -160.347060 23.766427 -2.557954 37.105851 12.579844 -63.301422 -1.250171 -110.284858 81.065829 -103.138162 4.940970 -14.301368 -14.104207 0.022946 0.015364 0.010421 -23.507848 -62.546070 18.210746 69.908859 80.586885 66.226667 -10.454192 -6.010187 -1.634862 -0.180413 -0.030510 -0.081866
87.126749 126.410408 117.670767 176.312702 -18.779543 -4.079207 -0.845698 10.565110 3.071759 -0.072314 0.704699 0.218398 -0.124633 1.203998 0.370136 -0.795894 9.688599 2.909301 0.541479 19.730384 -2.630691 1.167308 -4.790047 -2.919576 0.105175 7.351072 -5.550550 -16.155314 -22.809066 -14.165128 -137.807417 -58.046178 145.092137 -21.104600 -11.581331 -21.939102 -0.735355 8.851239 1.491741 30.249624 -14.889102 -0.607023 144.167323 -52.916169 -160.389545 23.779500 -2.505983 36.995569 12.526451 -63.305858 -1.214784 -110.446847 81.071468 -103.297151 4.920936 -14.331756 -14.115350 0.031694 0.009093 0.014392 -23.521569 -62.543894 18.212262 69.948299 80.586562 66.260026 -9.965942 -5.995037 -1.660391 -0.167148 -0.028884 -0.075850
87.145396 126.410138 117.672015 176.321336 -18.753204 -4.177763 -0.832738 10.557740 3.181721 -0.073325 0.700720 0.215986 -0.123484 1.208129 0.373952 -0.794695 9.688617 2.916095 0.529153 19.728307 -2.638969 1.161163 -4.793548 -2.926539 0.098399 7.334405 -5.564349 -16.125580 -22.816243 -14.169558 -137.799250 -58.042976 145.089930 -21.091409 -11.572197 -21.925644 -0.756023 8.829858 1.491103 30.208546 -14.917174 -0.508611 144.080109 -52.915836 -160.323266 23.790392 -2.458453 36.883200 12.333939 -63.351620 -1.007278 -110.472955 81.067343 -103.319722 4.946906 -14.338703 -14.110014 0.001277 -0.000122 0.000580 -23.712436 -62.535694 18.391472 70.131542 80.562795 66.409026 -8.899497 -5.971489 -1.746652 -0.007442 -0.002358 -0.003379
87.157876 126.409332 117.673306 176.329766 -18.723722 -4.242391 -0.826006 10.546495 3.257335 -0.076531 0.688239 0.207711 -0.118672 1.220115 0.383095 -0.794566 9.688894 2.924271 0.518875 19.728484 -2.646733 1.156555 -4.806129 -2.936635 0.093477 7.322389 -5.567453 -16.093421 -22.830245 -14.186783 -137.795553 -58.024232 145.098674 -21.066146 -11.554259 -21.943389 -0.776042 8.810444 1.489984 30.167194 -14.947020 -0.417140 143.991049 -52.912036 -160.255061 23.799195 -2.412105 36.777014 12.206691 -63.393079 -0.873181 -110.503136 81.063964 -103.349109 4.964587 -14.357815 -14.111902 -0.009565 -0.006178 -0.004342 -23.847783 -62.542027 18.512101 70.254886 80.544633 66.507316 -7.864468 -5.930974 -1.812710 0.084386 0.007801 0.038320
87.159715 126.408511 117.671638 176.330146 -18.707187 -4.244875 -0.825846 10.534007 3.263000 -0.073354 0.700376 0.216565 -0.115310 1.219099 0.382660 -0.783248 9.702989 2.947685 0.495347 19.715451 -2.665479 1.151067 -4.805498 -2.938869 0.083478 7.297397 -5.584786 -16.077712 -22.841037 -14.200877 -137.810457 -58.030083 145.098495 -21.078888 -11.546046 -21.918078 -0.803899 8.779429 1.468055 30.130199 -14.976733 -0.345436 143.915872 -52.911267 -160.220495 23.809139 -2.367789 36.683834 12.191793 -63.411373 -0.859452 -110.580993 81.059998 -103.430531 4.963535 -14.402354 -14.110767 -0.013180 -0.013323 -0.005983 -23.854952 -62.556041 18.523772 70.282065 80.545819 66.531776 -7.314479 -5.909536 -1.843276 0.101036 0.008711 0.045882
87.156292 126.407725 117.668382 176.332817 -18.697874 -4.218885 -0.823571 10.539554 3.247813 -0.073192 0.700237 0.216996 -0.117978 1.217611 0.382304 -0.786050 9.695046 2.946030 0.501220 19.726375 -2.657879 1.145522 -4.802028 -2.937892 0.085141 7.298025 -5.578118 -16.073706 -22.851509 -14.213186 -137.789925 -58.019270 145.103778 -21.073673 -11.544213 -21.907997 -0.813914 8.774095 1.469887 30.096285 -15.008373 -0.279854 143.840563 -52.910921 -160.188752 23.821274 -2.328338 36.604793 12.230419 -63.419944 -0.907837 -110.696386 81.056017 -103.551128 4.952251 -14.430770 -14.111872 -0.010521 -0.015173 -0.004776 -23.805124 -62.570260 18.484023 70.319033 80.535651 66.566645 -7.069117 -5.904022 -1.844423 0.076206 0.008116 0.034605
87.150712 126.406510 117.665932 176.333493 -18.683875 -4.181087 -0.819300 10.552985 3.229179 -0.078736 0.685829 0.209255 -0.117912 1.216776 0.382025 -0.789184 9.687176 2.944677 0.506456 19.737730 -2.650831 1.144361 -4.795896 -2.938214 0.087499 7.298494 -5.574919 -16.049939 -22.866047 -14.226134 -137.803649 -58.021743 145.129086 -21.067679 -11.541671 -21.919609 -0.825659 8.764575 1.488867 30.072262 -15.027242 -0.233620 143.769560 -52.907660 -160.161191 23.833169 -2.290793 36.538988 12.287297 -63.429138 -0.974683 -110.752478 81.049842 -103.617655 4.938993 -14.458349 -14.112844 -0.001530 -0.007148 -0.000695 -23.742336 -62.593189 18.430393 70.270961 80.543515 66.526727 -6.960148 -5.895736 -1.836456 0.022298 0.002088 0.010124
87.150036 126.405430 117.664648 176.335544 -18.666581 -4.171676 -0.818228 10.549102 3.228588 -0.078135 0.686018 0.208961 -0.118390 1.215866 0.383029 -0.785646 9.684552 2.949834 0.519479 19.763955 -2.635006 1.142514 -4.785726 -2.937558 0.085728 7.292306 -5.578049 -16.034319 -22.879102 -14.234533 -137.813870 -58.025164 145.146202 -21.068765 -11.531905 -21.901292 -0.837697 8.752563 1.483405 30.056657 -15.040819 -0.206320 143.728175 -52.902119 -160.189554 23.843131 -2.261000 36.489192 12.285288 -63.444760 -0.982979 -110.770603 81.043132 -103.650524 4.945422 -14.467945 -14.109431 -0.003033 -0.005035 -0.001377 -23.740208 -62.609653 18.433195 70.265461 80.544969 66.519712 -6.835361 -5.893905 -1.840954 0.014867 0.000603 0.006750
87.148329 126.404240 117.663562 176.336030 -18.648920 -4.156312 -0.819828 10.537843 3.217562 -0.075505 0.692832 0.214785 -0.119863 1.211788 0.379364 -0.777677 9.696222 2.967003 0.506828 19.751700 -2.650564 1.151956 -4.767018 -2.932354 0.099315 7.279767 -5.582265 -16.021115 -22.898108 -14.250222 -137.835990 -58.029525 145.162701 -21.059754 -11.528934 -21.910889 -0.852512 8.729606 1.468866 30.027917 -15.074474 -0.135610 143.644425 -52.887138 -160.144147 23.852876 -2.245626 36.451697 12.317515 -63.460956 -1.021508 -110.758394 81.021648 -103.649283 4.969907 -14.472211 -14.102624 -0.004800 -0.004164 -0.002179 -23.724034 -62.629304 18.420507 70.259619 80.546213 66.515273 -6.795839 -5.893553 -1.840711 0.006048 -0.000468 0.002746
87.148355 126.403219 117.662561 176.339276 -18.632767 -4.151382 -0.822139 10.528162 3.215378 -0.073035 0.699169 0.218262 -0.123767 1.202052 0.374633 -0.772584 9.704707 2.974487 0.504016 19.749229 -2.652862 1.166260 -4.741305 -2.926033 0.105459 7.273423 -5.583938 -16.024822 -22.903255 -14.255377 -137.858453 -58.014031 145.203975 -21.053661 -11.516796 -21.927198 -0.864932 8.713963 1.469159 30.018919 -15.097552 -0.075098 143.564000 -52.866259 -160.109352 23.853946 -2.252035 36.472356 12.332347 -63.478265 -1.041834 -110.771976 81.015611 -103.664652 4.965069 -14.466371 -14.100709 -0.005640 -0.004147 -0.002560 -23.723646 -62.642353 18.422312 70.248727 80.545837 66.504669 -6.757365 -5.896349 -1.842892 0.003173 0.000832 0.001441
87.147722 126.401536 117.663594 176.350439 -18.605245 -4.145784 -0.828945 10.514037 3.212949 -0.073042 0.698797 0.218212 -0.124020 1.201569 0.374833 -0.772028 9.707488 2.979805 0.506297 19.753170 -2.652565 1.162595 -4.746333 -2.928529 0.104658 7.261329 -5.589337 -16.025187 -22.905500 -14.259216 -137.871339 -58.010146 145.227558 -21.052660 -11.511755 -21.926379 -0.874978 8.695639 1.467783 30.019683 -15.101672 -0.057159 143.537699 -52.847016 -160.143576 23.856583 -2.251972 36.488493 12.354565 -63.506158 -1.076318 -110.789155 81.007500 -103.682243 4.962490 -14.443345 -14.098014 -0.004013 -0.000961 -0.001822 -23.740178 -62.668608 18.428517 70.244878 80.544465 66.500225 -6.726877 -5.896951 -1.844731 0.002341 0.001937 0.001063
87.147872 126.400911 117.661812 176.352383 -18.596533 -4.140222 -0.819441 10.535133 3.227295 -0.073158 0.699111 0.218708 -0.127920 1.186742 0.366039 -0.777461 9.699820 2.976096 0.516122 19.765910 -2.647010 1.156323 -4.754240 -2.931754 0.102820 7.253676 -5.593458 -16.012292 -22.899748 -14.271093 -137.890151 -58.000934 145.246527 -21.051488 -11.509927 -21.921533 -0.883251 8.690454 1.469374 30.024108 -15.120230 -0.019996 143.494014 -52.819991 -160.140244 23.864582 -2.239699 36.461142 12.372937 -63.514609 -1.091358 -110.777900 80.986715 -103.678063 4.972304 -14.436578 -14.086269 -0.005596 0.000690 -0.002541 -23.742773 -62.676856 18.427772 70.255291 80.541678 66.510384 -6.728509 -5.897839 -1.843538 -0.000102 0.001008 -0.000046
